<svg height="682pt"  width="682pt" xmlns="http://www.w3.org/2000/svg">
    <symbol id="kill" viewBox="-21 -26 682.66574 682">
    <path class="svgImage" d="m589.511719 264.921875c.121093 0 .242187.023437.367187.023437 27.5625 0 49.988282-22.429687 49.988282-49.988281 0-16.589843-8.214844-31.210937-20.6875-40.308593l-1.363282-29.628907c-.035156-.753906-.335937-1.390625-.53125-2.085937.753906-.824219 1.601563-1.570313 2.316406-2.425782 23.261719-27.578124 20.347657-60.136718 20.210938-61.503906-.503906-5.117187-4.808594-9.019531-9.945312-9.019531h-19.683594c-13.183594-41.976563-46.90625-69.984375-84.882813-69.984375h-236.492187c-38.617188 0-71.15625 28.921875-75.695313 67.273438l-11.976562 101.519531c-.195313 1.671875.152343 3.292969.761719 4.820312-13.226563 9.003907-21.941407 24.167969-21.941407 41.34375 0 27.5625 22.429688 49.988281 49.988281 49.988281.128907 0 .246094-.023437.367188-.023437 3.023438 76.632813 52.828125 141.144531 121.328125 164.988281h-84.339844c-51.425781 0-87.34375 34.898438-87.34375 84.863282v105.097656c0 5.523437 4.476563 9.996094 10 9.996094h439.910157c5.523437 0 9.996093-4.472657 9.996093-9.996094v-113.671875c0-44.921875-31.808593-76.289063-77.339843-76.289063h-94.339844c68.5-23.847656 118.308594-88.347656 121.328125-164.988281zm.367187-19.976563v-59.984374c16.539063 0 29.992188 13.453124 29.992188 29.996093 0 16.535157-13.453125 29.988281-29.992188 29.988281zm0-79.980468v-1.746094c2.96875-1.460938 5.816406-3.023438 8.542969-4.71875l.335937 7.363281c-2.894531-.523437-5.839843-.898437-8.878906-.898437zm-356.902344-95.347656c3.347657-28.289063 27.351563-49.621094 55.835938-49.621094h236.496094c27.332031 0 51.917968 19.816406 63.574218 49.988281h-48.996093c-5.523438 0-10 4.472656-10 9.996094 0 5.523437 4.476562 10 10 10h79.792969c-.90625 9.402343-4.230469 24.566406-15.550782 37.855469-14.386718 16.90625-37.800781 26.625-69.578125 28.882812-28.78125 2.039062-58.316406-2.441406-87.902343-13.34375l-115.53125-42.550781c-23.050782-8.480469-48.921876-5.230469-69.222657 8.722656-17.492187 12.003906-28.597656 30.050781-31.300781 50.417969h-8.273438zm-33.015624 145.339843c0-16.542969 13.453124-29.996093 29.988281-29.996093v59.984374c-16.535157 0-29.988281-13.453124-29.988281-29.988281zm119.976562 300.027344v-65.078125h39.988281v63.210938l-37.769531 15.109374c-1.3125-4.214843-2.21875-8.605468-2.21875-13.242187zm53.699219 14.195313c3.234375-1.300782 5.410156-4.1875 6.015625-7.527344 9.078125 5.3125 19.464844 8.238281 30.265625 8.238281 10.871093 0 21.214843-2.945313 30.257812-8.25.605469 3.347656 2.78125 6.238281 6.019531 7.539063l41.359376 16.542968c-8.191407 8.671875-19.714844 14.160156-32.554688 14.160156h-90.167969c-12.839843 0-24.363281-5.488281-32.558593-14.160156zm126.261719-14.195313c0 4.636719-.910157 9.027344-2.222657 13.242187l-37.769531-15.109374v-63.210938h39.992188zm-59.988282-18.960937c-7.609375 8.734374-18.308594 13.867187-29.992187 13.867187-11.5625 0-22.390625-5.027344-29.996094-13.695313v-46.289062h59.988281zm-239.949218 18.746093c0-36.382812 23.804687-61.574219 59.984374-64.566406v159.667969h-59.984374zm419.910156-8.570312v103.671875h-59.984375v-159.964844h2.640625c39.613281 0 57.34375 28.269531 57.34375 56.292969zm-79.980469 103.671875h-259.949219v-159.964844h20v65.078125c0 35.78125 29.105469 64.890625 64.890625 64.890625h90.167969c35.78125 0 64.890625-29.105469 64.890625-64.890625v-65.078125h20zm-129.972656-189.960938c-88.203125 0-159.96875-72.808594-159.96875-162.292968v-86.554688c0-.195312-.101563-.355469-.109375-.550781.007812-.191407.109375-.355469.109375-.550781l.011719-1.054688c.253906-17.28125 8.726562-32.910156 23.25-42.875 14.972656-10.28125 34.035156-12.6875 50.996093-6.441406l115.535157 42.546875c32.265624 11.890625 64.65625 16.796875 96.230468 14.527343 12.367188-.878906 23.613282-2.890624 33.910156-5.824218v86.777344c0 89.484374-71.761718 162.292968-159.964843 162.292968zm0 0"/>
    <path class="svgImage" d="m455.433594 305.988281-17.886719 8.941407h-55.273437l-17.875-8.941407c-4.929688-2.472656-10.941407-.472656-13.417969 4.472657-2.464844 4.9375-.46875 10.945312 4.472656 13.414062l19.984375 10c1.386719.6875 2.921875 1.054688 4.472656 1.054688h60c1.554688 0 3.082032-.367188 4.46875-1.054688l20-10c4.941406-2.46875 6.9375-8.476562 4.46875-13.414062-2.464844-4.941407-8.460937-6.945313-13.414062-4.472657zm0 0"/>
    <path class="svgImage" d="m339.929688 219.949219c0 8.289062-6.710938 15-15 15-8.28125 0-14.992188-6.710938-14.992188-15 0-8.28125 6.710938-14.992188 14.992188-14.992188 8.289062 0 15 6.710938 15 14.992188zm0 0"/>
    <path class="svgImage" d="m509.898438 219.949219c0 8.289062-6.714844 15-15 15-8.28125 0-14.996094-6.710938-14.996094-15 0-8.28125 6.714844-14.992188 14.996094-14.992188 8.285156 0 15 6.710938 15 14.992188zm0 0"/>
    <path class="svgImage" d="m189.878906 300.355469c.003906-.148438.082032-.273438.082032-.421875v-39.988282c0-5.523437-4.476563-10-9.996094-10-5.523438 0-10 4.476563-10 10v29.996094h-19.996094v-29.996094c0-5.523437-4.476562-10-10-10-5.519531 0-9.992188 4.476563-9.992188 10v29.996094h-20v-29.996094c0-5.523437-4.472656-10-9.996093-10-5.523438 0-10 4.476563-10 10v29.996094h-19.996094v-29.996094c0-5.523437-4.476563-10-9.996094-10s-10 4.476563-10 10v29.996094h-19.992187v-29.996094c0-5.523437-4.480469-10-10-10-5.523438 0-9.996094 4.476563-9.996094 10v39.988282c0 .152344.074219.273437.082031.421875.003907.140625-.0625.269531-.046875.410156l19.992188 239.949219c.195312 2.359375 1.222656 4.570312 2.898437 6.242187l19.992188 19.996094c1.875 1.875 4.421875 2.929687 7.070312 2.929687h29.824219c-.890625 22.179688-19.082031 39.988282-41.484375 39.988282h-38.328125c-5.523438 0-10 4.476562-10 10 0 5.523437 4.476562 9.996094 10 9.996094h38.328125c33.433594 0 60.675781-26.769532 61.5625-59.984376h30.078125c2.652344 0 5.195312-1.054687 7.070312-2.929687l19.996094-19.996094c1.675782-1.671875 2.699219-3.882812 2.894532-6.242187l19.996093-239.949219c.011719-.140625-.054687-.269531-.046875-.410156zm-20.78125 9.578125-1.671875 19.996094h-134.898437l-1.667969-19.996094zm-39.121094 39.992187c0 11.03125-8.972656 19.996094-20 19.996094h-19.996093c-11.027344 0-19.996094-8.964844-19.996094-19.996094zm5.851563 199.960938h-71.703125l-14.472656-14.484375-15.457032-185.476563h15.792969c0 22.050781 17.941407 39.988281 39.992188 39.988281h19.996093c22.050782 0 39.992188-17.9375 39.992188-39.988281h15.792969l-15.453125 185.476563zm0 0"/>
    <path class="svgImage" d="m99.980469 409.914062c-16.539063 0-29.996094 13.453126-29.996094 29.992188v19.996094c0 16.542968 13.457031 29.992187 29.996094 29.992187 16.539062 0 29.996093-13.449219 29.996093-29.992187v-19.996094c0-16.539062-13.457031-29.992188-29.996093-29.992188zm9.996093 49.988282c0 5.511718-4.484374 10-9.996093 10s-10-4.488282-10-10v-19.996094c0-5.507812 4.488281-9.996094 10-9.996094s9.996093 4.488282 9.996093 9.996094zm0 0"/>
    </symbol>
</svg>