
<svg version="1.1" id="Layer_1" xmlns="http://www.w3.org/2000/svg" xmlns:xlink="http://www.w3.org/1999/xlink" x="0px" y="0px"
	  style="enable-background:new 0 0 512 512;" xml:space="preserve">
	<symbol id="killo" viewBox="0 0 512 512">
<path class="svgH" style="fill:#429a89;" d="M473.104,371.851c0.176-0.611,0.336-1.228,0.479-1.85c0.046-0.2,0.089-0.401,0.131-0.603
	c0.113-0.54,0.213-1.085,0.3-1.634c0.037-0.236,0.076-0.473,0.11-0.711c0.075-0.545,0.131-1.092,0.18-1.643
	c0.021-0.225,0.047-0.447,0.063-0.674c0.052-0.767,0.084-1.537,0.084-2.313l0,0l0,0v-0.006l-0.006-40.904v-0.002l-0.005-26.203
	v-0.002v-4.213l-0.004-25.574l0,0l-0.008-48.824l-0.005-26.204l-0.006-40.984c0-2.995-0.407-5.931-1.16-8.75
	c-0.405-1.517-0.915-2.997-1.521-4.435c-2.477-5.877-6.574-11.017-11.925-14.74c-0.784-0.545-1.584-1.071-2.419-1.553
	l-22.874-13.202l-21.414-12.358l-17.239-9.949l-65.928-38.046L304.22,31.629l-19.288-11.132l-11.953-6.899
	c-10.533-6.078-23.509-6.076-34.04,0.007l-11.872,6.857l-19.288,11.14l-25.717,14.854v-0.001l-65.915,38.072l-28.89,16.686
	l-21.408,12.365l-11.282,6.517c-0.811,0.468-1.59,0.979-2.353,1.506c-3.272,2.268-6.073,5.068-8.333,8.235
	c-1.517,2.129-2.781,4.424-3.773,6.843c-1.655,4.031-2.558,8.399-2.557,12.899l0.006,40.912l0.005,26.204l0.012,73.738v4.011v0.85
	v0.001v0.013l0,0v0.005l0,0l0.005,26.2l0,0v1.864l0.002,12.617l0.004,26.497v0.006l0,0c0,0.773,0.033,1.539,0.084,2.305
	c0.016,0.223,0.042,0.445,0.061,0.668c0.048,0.548,0.105,1.096,0.18,1.638c0.033,0.236,0.072,0.471,0.108,0.708
	c0.087,0.544,0.186,1.086,0.298,1.625c0.042,0.201,0.086,0.403,0.131,0.603c0.14,0.615,0.298,1.222,0.471,1.825
	c0.033,0.113,0.061,0.227,0.095,0.34c0.909,3.042,2.24,5.93,3.94,8.589l0.001,0.001l0.001,0.002
	c1.172,1.832,2.517,3.551,4.025,5.137c0.051,0.052,0.099,0.106,0.148,0.158c0.709,0.735,1.454,1.439,2.231,2.113
	c0.125,0.11,0.254,0.215,0.382,0.322c0.786,0.661,1.595,1.298,2.445,1.89c0.784,0.545,1.584,1.07,2.419,1.553l22.552,13.015
	l21.414,12.36l17.561,10.134l91.644,52.89l19.288,11.132l11.953,6.899c10.533,6.078,23.509,6.076,34.04-0.007l11.872-6.857
	l19.288-11.14l25.717-14.853l55.554-32.086l10.363-5.985l26.36-15.225l21.408-12.365l13.813-7.978
	c0.811-0.468,1.59-0.979,2.353-1.506c0.851-0.588,1.659-1.226,2.446-1.884c0.128-0.107,0.258-0.212,0.385-0.322
	c0.78-0.673,1.526-1.375,2.237-2.11c0.047-0.048,0.09-0.098,0.136-0.146c3.724-3.891,6.476-8.609,8.02-13.765
	C473.045,372.067,473.072,371.958,473.104,371.851z"/></symbol>

<g>
</g>
<g>
</g>
<g>
</g>
<g>
</g>
<g>
</g>
<g>
</g>
<g>
</g>
<g>
</g>
<g>
</g>
<g>
</g>
<g>
</g>
<g>
</g>
<g>
</g>
<g>
</g>
<g>
</g>
</svg>
